#!OML:ASF E:\Style4\Style4.ASF
:FULLY-SPECIFIED
:DEGREES
1863
root -0.37278 17.8394 -1.31702 4.18309 11.3906 0.36832
lowerback 11.5615 1.67254 -4.79651
upperback 6.52608 1.75042 -4.92631
thorax 0.377092 0.859332 -2.6271
lowerneck 1.73172 2.11088 -2.36091
upperneck 4.89517 2.36455 14.644
head 0.922436 1.33604 4.78961
rclavicle -7.95139e-015 -2.38542e-014
rhumerus 38.8673 -23.2796 -7.30534
rradius 64.2403
rwrist -29.8112
rhand 44.0928 -4.849
rfingers 7.12502
rthumb 65.6885 -10.8363
lclavicle -7.95139e-015 -2.38542e-014
lhumerus 37.6395 -34.8335 29.5047
lradius 79.8775
lwrist 6.91079
lhand 33.2409 41.7217
lfingers 7.12502
lthumb 56.5946 58.6405
rfemur -18.1269 -7.64971 20.3295
rtibia 32.5515
rfoot -18.3001 -21.9962
rtoes -7.28613
lfemur -20.6989 -5.45782 -16.2738
ltibia 29.8978
lfoot -13.3644 1.88318
ltoes -17.5079
1864
root -0.415947 17.8509 -1.30954 4.32287 12.2612 0.41986
lowerback 11.5582 1.80794 -4.53778
upperback 6.49823 1.95589 -5.00808
thorax 0.362553 0.972542 -2.88102
lowerneck 1.70562 1.72367 -2.35173
upperneck 4.79523 1.85158 14.7524
head 0.941409 1.08123 4.8226
rclavicle 9.54166e-015 7.63333e-014
rhumerus 39.3925 -23.4107 -6.99867
rradius 63.7177
rwrist -29.8745
rhand 43.3699 -4.97118
rfingers 7.12502
rthumb 65.1228 -11.9423
lclavicle 9.54166e-015 7.63333e-014
lhumerus 38.1645 -34.5099 28.871
lradius 79.9719
lwrist 7.20421
lhand 33.1501 41.7945
lfingers 7.12502
lthumb 56.5146 58.7778
rfemur -18.0889 -8.02087 20.4697
rtibia 32.4111
rfoot -18.4147 -22.3597
rtoes -6.89508
lfemur -20.7587 -5.91311 -16.1304
ltibia 29.4101
lfoot -12.951 1.58561
ltoes -17.6454
1865
root -0.457295 17.8614 -1.29774 4.49236 13.1408 0.574727
lowerback 11.4904 1.97717 -4.33724
upperback 6.49644 2.2079 -5.12873
thorax 0.414249 1.10798 -3.14576
lowerneck 1.67757 1.28633 -2.26569
upperneck 4.66005 1.27586 14.8492
head 0.957573 0.794953 4.8382
rclavicle -2.54444e-014 3.81667e-014
rhumerus 39.9927 -23.6331 -6.99386
rradius 63.0854
rwrist -29.6437
rhand 43.0879 -4.91218
rfingers 7.12502
rthumb 64.9001 -12.2544
lclavicle -2.54444e-014 3.81667e-014
lhumerus 38.7987 -34.1983 28.1742
lradius 80.0991
lwrist 7.49368
lhand 32.8032 41.8617
lfingers 7.12502
lthumb 56.2079 59.0891
rfemur -18.0587 -8.50748 20.4896
rtibia 32.3023
rfoot -18.5118 -22.67
rtoes -6.69706
lfemur -20.8168 -6.3742 -16.1083
ltibia 28.942
lfoot -12.6672 1.25445
ltoes -17.0406
1866
root -0.496177 17.8707 -1.28471 4.66176 13.982 0.756786
lowerback 11.4826 2.17556 -4.13837
upperback 6.45255 2.49013 -5.26987
thorax 0.394237 1.2596 -3.43753
lowerneck 1.63298 0.811789 -2.17527
upperneck 4.64507 0.634344 14.9739
head 1.01737 0.48245 4.86179
rclavicle 4.77083e-015 -1.11319e-014
rhumerus 41.154 -24.0194 -7.92194
rradius 62.2264
rwrist -28.5636
rhand 43.1774 -5.06107
rfingers 7.12502
rthumb 64.9709 -12.2862
lclavicle 4.77083e-015 -1.11319e-014
lhumerus 39.4494 -33.9662 27.5479
lradius 80.169
lwrist 7.73968
lhand 32.3506 41.9328
lfingers 7.12502
lthumb 55.8069 59.4712
rfemur -18.0471 -9.04665 20.4752
rtibia 32.243
rfoot -18.5763 -22.908
rtoes -6.73107
lfemur -20.8622 -6.79657 -16.1272
ltibia 28.4956
lfoot -12.3636 0.897221
ltoes -16.6742
1867
root -0.535319 17.877 -1.27384 4.79242 14.764 0.85309
lowerback 11.5576 2.3687 -3.91063
upperback 6.37535 2.75906 -5.35848
thorax 0.29574 1.40425 -3.69364
lowerneck 1.59705 0.377988 -2.18802
upperneck 4.71529 0.0367973 15.0864
head 1.09664 0.193391 4.89828
rclavicle -7.95139e-016 1.27222e-014
rhumerus 42.2956 -24.2052 -8.68362
rradius 61.3595
rwrist -27.5547
rhand 42.8212 -5.09661
rfingers 7.12502
rthumb 64.6885 -12.7837
lclavicle -7.95139e-016 1.27222e-014
lhumerus 39.9357 -33.7049 27.0998
lradius 80.2307
lwrist 7.79433
lhand 32.3548 42.3193
lfingers 7.12502
lthumb 55.8106 59.8549
rfemur -18.0567 -9.4202 20.55
rtibia 32.2292
rfoot -18.7195 -23.2356
rtoes -6.68989
lfemur -20.914 -7.12073 -16.055
ltibia 28.0842
lfoot -12.0109 0.596988
ltoes -17.114
1868
root -0.574953 17.8812 -1.26434 4.93503 15.5986 0.949666
lowerback 11.63 2.53347 -3.61584
upperback 6.33854 3.00129 -5.45016
thorax 0.246699 1.53717 -3.98751
lowerneck 1.49312 -0.0501282 -2.24775
upperneck 4.75628 -0.551937 15.203
head 1.17899 -0.0906286 4.94237
rclavicle 1.59028e-014 -1.90833e-014
rhumerus 43.0014 -24.2753 -8.88651
rradius 60.6427
rwrist -26.9627
rhand 42.7287 -4.53468
rfingers 7.12502
rthumb 64.6149 -12.3399
lclavicle 1.59028e-014 -1.90833e-014
lhumerus 40.45 -33.3311 26.64
lradius 80.3196
lwrist 7.89729
lhand 32.4119 42.5152
lfingers 7.12502
lthumb 55.8613 60.012
rfemur -18.0968 -9.71414 20.6311
rtibia 32.2578
rfoot -18.9517 -23.6508
rtoes -6.2257
lfemur -21.0051 -7.47034 -15.9746
ltibia 27.7146
lfoot -11.6498 0.237691
ltoes -16.9706
1869
root -0.613397 17.8842 -1.25577 5.10542 16.4435 1.13913
lowerback 11.6323 2.67115 -3.39997
upperback 6.37852 3.21182 -5.56386
thorax 0.315928 1.6531 -4.25159
lowerneck 1.31269 -0.467038 -2.23579
upperneck 4.76104 -1.12081 15.246
head 1.26285 -0.363302 4.94961
rclavicle 4.77083e-014 -8.11041e-014
rhumerus 43.7342 -24.4831 -9.22965
rradius 60.0281
rwrist -26.6611
rhand 43.2047 -4.22188
rfingers 7.12502
rthumb 64.9925 -11.4112
lclavicle 4.77083e-014 -8.11041e-014
lhumerus 40.8179 -32.7898 26.2737
lradius 80.3864
lwrist 8.02257
lhand 32.3189 42.521
lfingers 7.12502
lthumb 55.7788 60.0809
rfemur -18.1667 -10.1633 20.615
rtibia 32.3327
rfoot -19.2069 -23.9298
rtoes -5.61169
lfemur -21.1377 -7.88593 -15.9997
ltibia 27.4012
lfoot -11.2924 -0.119782
ltoes -16.3641
1870
root -0.651529 17.8875 -1.24864 5.28595 17.2432 1.26524
lowerback 11.5321 2.81224 -3.21963
upperback 6.5024 3.43715 -5.58929
thorax 0.524254 1.77428 -4.39543
lowerneck 1.02193 -0.879194 -2.30807
upperneck 4.70886 -1.67963 15.2785
head 1.34864 -0.631161 4.9652
rclavicle -6.59965e-014 6.36111e-015
rhumerus 44.6668 -24.8024 -9.70321
rradius 59.3673
rwrist -26.2788
rhand 43.4707 -3.81268
rfingers 7.12502
rthumb 65.2022 -10.6493
lclavicle -6.59965e-014 6.36111e-015
lhumerus 41.0205 -32.0314 26.2536
lradius 80.3755
lwrist 7.97283
lhand 32.2 42.4158
lfingers 7.12502
lthumb 55.6732 60.056
rfemur -18.2969 -10.6569 20.6785
rtibia 32.4563
rfoot -19.5137 -24.1059
rtoes -4.52354
lfemur -21.3287 -8.25271 -15.9526
ltibia 27.1257
lfoot -10.9445 -0.461947
ltoes -16.2096
1871
root -0.691387 17.8875 -1.24136 5.44588 18.024 1.39182
lowerback 11.5155 2.96579 -3.1241
upperback 6.59784 3.66196 -5.55183
thorax 0.649459 1.89151 -4.42987
lowerneck 0.77721 -1.2771 -2.52621
upperneck 4.62176 -2.21348 15.2907
head 1.41587 -0.893244 4.99758
rclavicle 4.21423e-014 -4.77083e-015
rhumerus 45.6321 -24.9872 -10.1922
rradius 58.7386
rwrist -25.6101
rhand 43.5412 -3.46593
rfingers 7.12502
rthumb 65.2575 -10.2081
lclavicle 4.21423e-014 -4.77083e-015
lhumerus 41.1986 -31.2473 26.4735
lradius 80.3333
lwrist 7.68144
lhand 32.2014 42.0506
lfingers 7.12502
lthumb 55.6745 59.6899
rfemur -18.4436 -11.1246 20.7445
rtibia 32.6276
rfoot -19.8106 -24.2909
rtoes -3.54131
lfemur -21.5071 -8.61572 -15.8943
ltibia 26.8812
lfoot -10.6692 -0.781856
ltoes -15.9038
1872
root -0.732255 17.8839 -1.23495 5.57323 18.8025 1.5256
lowerback 11.637 3.10506 -3.01733
upperback 6.55283 3.84841 -5.5516
thorax 0.553834 1.98956 -4.51866
lowerneck 0.958576 -1.65028 -2.69928
upperneck 4.48143 -2.69869 15.3208
head 1.39171 -1.1496 5.03077
rclavicle 1.90833e-014 2.54444e-014
rhumerus 46.5009 -24.8744 -10.7796
rradius 58.1717
rwrist -24.8917
rhand 43.9284 -3.29068
rfingers 7.12502
rthumb 65.5605 -9.50597
lclavicle 1.90833e-014 2.54444e-014
lhumerus 41.3299 -30.6702 26.7775
lradius 80.1351
lwrist 7.1481
lhand 32.3641 41.0953
lfingers 7.12502
lthumb 55.8189 58.6246
rfemur -18.5898 -11.5874 20.8053
rtibia 32.8367
rfoot -20.0006 -24.5699
rtoes -4.2593
lfemur -21.6692 -8.89897 -15.8606
ltibia 26.6898
lfoot -10.4383 -1.13215
ltoes -16.6023
1873
root -0.771588 17.8804 -1.2299 5.7227 19.5521 1.73154
lowerback 11.757 3.28665 -2.93085
upperback 6.49198 4.08818 -5.58527
thorax 0.447964 2.11441 -4.63904
lowerneck 1.19311 -2.05539 -2.82358
upperneck 4.45912 -3.24244 15.4145
head 1.39971 -1.42952 5.07544
rclavicle -1.43125e-014 -1.74931e-014
rhumerus 47.2053 -24.6882 -11.2787
rradius 57.6666
rwrist -24.1989
rhand 44.3836 -3.42382
rfingers 7.12502
rthumb 65.9137 -9.00212
lclavicle -1.43125e-014 -1.74931e-014
lhumerus 41.5368 -30.2748 27.078
lradius 79.9232
lwrist 6.78982
lhand 32.2657 40.5597
lfingers 7.12502
lthumb 55.7316 58.1556
rfemur -18.7568 -12.0442 20.7851
rtibia 33.0855
rfoot -20.1794 -24.8392
rtoes -5.14926
lfemur -21.8536 -9.14739 -15.9127
ltibia 26.5527
lfoot -10.2015 -1.49576
ltoes -16.9895
1874
root -0.808611 17.8762 -1.22651 5.86185 20.296 1.93686
lowerback 11.8955 3.4878 -2.81142
upperback 6.5263 4.36342 -5.56428
thorax 0.433654 2.25777 -4.72279
lowerneck 1.18659 -2.50058 -3.12221
upperneck 4.37484 -3.84168 15.5733
head 1.44133 -1.73236 5.16543
rclavicle 5.76476e-014 -2.8625e-014
rhumerus 47.8791 -24.643 -11.6535
rradius 57.1705
rwrist -23.6002
rhand 43.8998 -3.30251
rfingers 7.12502
rthumb 65.5382 -9.55717
lclavicle 5.76476e-014 -2.8625e-014
lhumerus 41.7712 -29.8011 27.3793
lradius 79.881
lwrist 6.73824
lhand 32.0758 40.6894
lfingers 7.12502
lthumb 55.5629 58.413
rfemur -18.9331 -12.5507 20.7567
rtibia 33.3685
rfoot -20.4218 -25.0242
rtoes -5.1738
lfemur -22.0649 -9.32848 -15.9854
ltibia 26.4618
lfoot -9.93875 -1.92765
ltoes -17.1228
